<?xml version="1.0" standalone="no"?>
<!DOCTYPE svg PUBLIC "-//W3C//DTD SVG 20010904//EN"
  "http://www.w3.org/TR/2001/REC-SVG-20010904/DTD/svg10.dtd">
<svg version="1.0" xmlns="http://www.w3.org/2000/svg"
  width="180.000000pt" height="180.000000pt" viewBox="0 0 180.000000 180.000000"
  preserveAspectRatio="xMidYMid meet">

<g transform="translate(0.000000,180.000000) scale(0.100000,-0.100000)"
fill="#000000" stroke="none">
<path d="M384 1631 c-47 -29 -74 -74 -85 -141 -14 -86 -25 -100 -76 -100 -64
0 -70 -16 -76 -200 -3 -129 -8 -164 -25 -208 -28 -68 -28 -136 0 -198 19 -42
23 -73 27 -211 6 -150 8 -164 28 -185 19 -19 26 -20 48 -10 35 16 62 -12 70
-75 18 -137 103 -203 230 -179 48 9 112 68 125 114 5 21 10 128 10 240 0 228
8 265 57 279 36 10 330 10 366 0 49 -14 57 -51 57 -279 0 -112 5 -219 10 -240
13 -46 77 -105 125 -114 127 -24 212 42 230 179 8 63 35 91 70 75 22 -10 29
-9 48 10 20 21 22 35 28 185 5 134 10 171 27 215 28 67 28 127 0 194 -17 44
-22 79 -25 208 -6 184 -12 200 -76 200 -51 0 -62 14 -76 100 -18 110 -75 160
-183 160 -75 0 -114 -20 -149 -76 -23 -38 -24 -48 -29 -274 -5 -246 -9 -268
-52 -291 -29 -15 -347 -15 -376 0 -43 23 -47 45 -52 291 -5 226 -6 236 -29
274 -35 57 -74 76 -151 76 -46 0 -74 -6 -96 -19z"/>
</g>
</svg>
