<?xml version="1.0" standalone="no"?>
<!DOCTYPE svg PUBLIC "-//W3C//DTD SVG 20010904//EN"
 "http://www.w3.org/TR/2001/REC-SVG-20010904/DTD/svg10.dtd">
<svg version="1.0" xmlns="http://www.w3.org/2000/svg"
 width="32.000000pt" height="32.000000pt" viewBox="0 0 32.000000 32.000000"
 preserveAspectRatio="xMidYMid meet">

<g transform="translate(0.000000,32.000000) scale(0.100000,-0.100000)"
fill="#000000" stroke="none">
<path d="M53 271 c-3 -12 -9 -21 -13 -21 -12 0 -21 -90 -14 -142 4 -26 10 -45
15 -42 5 3 9 -1 9 -9 0 -8 7 -20 16 -28 26 -22 48 1 54 57 5 48 5 49 40 49 35
0 35 -1 40 -49 6 -56 28 -79 54 -57 9 8 16 20 16 28 0 8 4 12 9 9 4 -3 11 16
15 41 7 51 -2 143 -14 143 -4 0 -10 9 -13 21 -4 16 -12 20 -34 17 -26 -3 -28
-6 -31 -55 l-3 -53 -39 0 -39 0 -3 53 c-3 49 -5 52 -31 55 -22 3 -30 -1 -34
-17z"/>
</g>
</svg>
